<svg version="1.2" xmlns="http://www.w3.org/2000/svg" viewBox="0 0 512 512" width="32" height="32">
	<defs>
		<clipPath clipPathUnits="userSpaceOnUse" id="cp1">
			<path d="m1 1h528.78v528.81h-528.78z"/>
		</clipPath>
	</defs>
	<style>
		.s0 { fill: #4f504f } 
		.s1 { fill: #ffffff } 
	</style>
	<g id="layer1">
		<g id="Layer_2">
			<g id="Swing">
				<g id="Clip-Path: g15" clip-path="url(#cp1)">
					<g id="g15">
						<path id="path1" class="s0" d="m256 506.61q-1.27 0-2.53-0.24-1.25-0.25-2.42-0.74-1.18-0.49-2.24-1.2-1.06-0.71-1.96-1.61l-237.61-237.65c-1.21-1.21-2.16-2.63-2.81-4.2-0.65-1.57-0.99-3.26-0.99-4.96 0-1.7 0.34-3.38 0.99-4.95 0.65-1.57 1.6-3 2.81-4.2l237.61-237.64c1.2-1.2 2.63-2.15 4.2-2.8 1.57-0.65 3.25-0.99 4.95-0.99 1.7 0 3.38 0.34 4.95 0.99 1.57 0.65 3 1.6 4.2 2.8l237.61 237.64c1.21 1.2 2.16 2.63 2.81 4.2 0.65 1.57 0.99 3.25 0.99 4.95 0 1.7-0.34 3.39-0.99 4.96-0.65 1.57-1.6 2.99-2.81 4.2l-237.61 237.65q-0.9 0.9-1.96 1.61-1.06 0.71-2.24 1.2-1.17 0.49-2.42 0.74-1.26 0.24-2.53 0.24z"/>
						<path id="path2" class="s1" d="m256 1q-1.71 0-3.39 0.33-1.68 0.34-3.26 0.99-1.58 0.66-3 1.61-1.42 0.95-2.63 2.16l-237.63 237.65c-1.61 1.61-2.89 3.52-3.77 5.62-0.87 2.11-1.32 4.36-1.32 6.64 0 2.28 0.45 4.53 1.32 6.64 0.88 2.1 2.16 4.01 3.77 5.62l237.63 237.68c1.62 1.6 3.53 2.88 5.64 3.75 2.11 0.86 4.36 1.31 6.64 1.31 2.28 0 4.53-0.45 6.64-1.31 2.11-0.87 4.02-2.15 5.64-3.75l237.63-237.68c1.61-1.61 2.89-3.52 3.77-5.62 0.87-2.11 1.32-4.36 1.32-6.64 0-2.28-0.45-4.53-1.32-6.64-0.88-2.1-2.16-4.01-3.77-5.62l-237.63-237.65q-1.21-1.21-2.63-2.16-1.42-0.95-3-1.61-1.58-0.65-3.26-0.99-1.68-0.33-3.39-0.33zm0 8.81q0.84 0 1.66 0.16 0.83 0.16 1.6 0.48 0.78 0.32 1.48 0.79 0.69 0.47 1.29 1.06l237.64 237.68c0.8 0.79 1.43 1.73 1.86 2.77 0.43 1.03 0.65 2.14 0.65 3.26 0 1.12-0.22 2.23-0.65 3.27-0.43 1.04-1.06 1.98-1.86 2.77l-237.64 237.65c-0.79 0.8-1.73 1.43-2.76 1.86-1.04 0.43-2.15 0.65-3.27 0.65-1.12 0-2.23-0.22-3.27-0.65-1.03-0.43-1.97-1.06-2.76-1.86l-237.64-237.65c-0.8-0.79-1.43-1.73-1.86-2.77-0.43-1.04-0.65-2.15-0.65-3.27 0-1.12 0.22-2.23 0.65-3.26 0.43-1.04 1.06-1.98 1.86-2.77l237.64-237.68q0.6-0.59 1.29-1.06 0.7-0.47 1.48-0.79 0.77-0.32 1.6-0.48 0.82-0.16 1.66-0.16z"/>
						<path id="path3" class="s1" d="m199.6 178.68l43.67-42.68q0.32-0.35 0.78-0.45 0.47-0.1 0.9 0.1 0.43 0.2 0.66 0.61 0.23 0.42 0.17 0.89v86.13q0.06 0.47-0.17 0.89-0.23 0.41-0.66 0.61-0.44 0.19-0.9 0.1-0.46-0.11-0.78-0.46l-43.67-42.67q-0.29-0.31-0.44-0.71-0.15-0.4-0.15-0.82 0-0.43 0.15-0.83 0.15-0.39 0.44-0.71z"/>
						<path id="path4" class="s1" d="m262.25 144.67v10.08q-3.12-0.07-6.25-0.06-2.64 0-5.29 0v-18.55l9.05 4.51q0.56 0.28 1.02 0.7 0.46 0.43 0.79 0.96 0.33 0.53 0.5 1.13 0.17 0.6 0.18 1.23z"/>
						<path id="path5" class="s1" d="m262.25 205.96v10.26q0 0.63-0.18 1.24-0.17 0.61-0.5 1.15-0.34 0.53-0.81 0.96-0.47 0.43-1.03 0.71l-9.02 4.5v-18.83q2.65 0 5.29 0 3.14-0.05 6.25 0.01z"/>
						<path id="path6" class="s1" d="m256 158.17c12.41 0 27.25 0.8 39.01 1.95q0.49 0.04 0.94 0.26 0.44 0.22 0.78 0.59 0.33 0.37 0.51 0.83 0.18 0.46 0.18 0.96l-1.46 6.34q-0.74 3.21-1.11 6.48-0.38 3.27-0.38 6.57 0 3.29 0.38 6.56 0.37 3.28 1.11 6.49l1.48 6.48q0 0.57-0.23 1.08-0.22 0.52-0.64 0.9-0.42 0.38-0.96 0.55-0.54 0.18-1.1 0.12c-11.54-1.08-26.2-1.86-38.49-1.86q-5.16 0-10.23 0.14h-1.76v-44.3h1.76c3.38-0.14 6.78-0.14 10.21-0.14z"/>
						<path id="path7" class="s1" d="m319.69 163.59q4.85 0.87 9.66 1.92 4.8 1.05 9.57 2.28 4.77 1.23 9.48 2.64 4.72 1.4 9.38 2.99 0.47 0.15 0.86 0.46 0.38 0.32 0.62 0.75 0.25 0.43 0.32 0.92 0.07 0.49-0.04 0.97l-1.5 7.12q-0.61 2.89-0.93 5.82-0.32 2.93-0.33 5.88-0.02 2.95 0.26 5.88 0.28 2.94 0.86 5.83l1.27 6.38q0.15 0.7-0.07 1.37-0.22 0.68-0.74 1.16-0.53 0.48-1.22 0.63-0.7 0.14-1.38-0.07-4.51-1.42-9.07-2.69-4.57-1.26-9.17-2.37-4.6-1.11-9.24-2.06-4.64-0.96-9.3-1.75-0.41-0.07-0.78-0.25-0.36-0.18-0.66-0.47-0.3-0.28-0.49-0.64-0.2-0.36-0.28-0.77l-1.82-9.15q-0.56-2.86-0.84-5.75-0.28-2.9-0.26-5.81 0.01-2.91 0.31-5.81 0.3-2.89 0.89-5.74l1.57-7.55q0.09-0.52 0.38-0.96 0.29-0.44 0.72-0.74 0.43-0.29 0.94-0.4 0.52-0.11 1.03-0.02z"/>
						<path id="path8" class="s1" d="m407.29 208.87c0 4.17-5.41 12.34-18.93 21.08q-1.64-0.96-3.32-1.85-1.68-0.9-3.4-1.72-1.71-0.83-3.46-1.59-1.74-0.76-3.51-1.45-0.32-0.12-0.6-0.32-0.27-0.2-0.49-0.46-0.22-0.26-0.36-0.57-0.15-0.3-0.21-0.64l-1.76-8.96q-0.59-2.94-0.87-5.93-0.28-2.98-0.25-5.98 0.02-3 0.36-5.98 0.33-2.98 0.97-5.91c0.46-2.1 0.88-4.14 1.23-5.73q0.12-0.61 0.49-1.1 0.37-0.49 0.91-0.77 0.55-0.27 1.16-0.28 0.62-0.01 1.17 0.25c24.99 11.28 30.87 22.41 30.87 27.91z"/>
						<path id="path9" class="s1" d="m423.84 208.88v64.94c0 19.65-18.69 37.44-48.92 50.33v-64.93q7.17-3.06 13.44-6.47 2.27-1.22 4.49-2.54 2.21-1.32 4.35-2.75 2.14-1.42 4.22-2.95 2.07-1.53 4.07-3.16c11.74-9.74 18.35-20.77 18.35-32.47z"/>
						<path id="path10" class="s1" d="m247.74 284.78v-32.7c0-2.14 2.42-3.71 4.16-2.73l77.67 60.32q0.72 0.56 1.12 1.37 0.39 0.81 0.4 1.72-0.01 0.9-0.4 1.72-0.4 0.81-1.12 1.36l-77.67 60.32c-1.76 0.99-4.16-0.61-4.16-2.71z"/>
						<path id="path11" class="s1" d="m262.48 249.05l17.26 3.25q0.74 0.13 1.45 0.36 0.72 0.22 1.4 0.53 0.69 0.31 1.33 0.69 0.64 0.39 1.23 0.85l71.23 54.94q0.71 0.56 1.11 1.37 0.39 0.82 0.39 1.72 0 0.9-0.39 1.71-0.4 0.81-1.11 1.37l-71.23 54.95q-0.59 0.46-1.23 0.84-0.64 0.39-1.33 0.7-0.68 0.3-1.4 0.53-0.71 0.22-1.45 0.36l-17.26 3.24 77.04-60.63q0.71-0.56 1.11-1.37 0.39-0.82 0.4-1.72-0.01-0.9-0.4-1.72-0.4-0.81-1.11-1.36z"/>
						<path id="path12" class="s1" d="m250.4 280.17v64.94q-8.03-0.18-16.06-0.68-8.02-0.49-16.02-1.29-8-0.8-15.96-1.91-7.96-1.1-15.88-2.52-0.51-0.09-0.96-0.37-0.44-0.28-0.75-0.7-0.3-0.42-0.43-0.93-0.12-0.51-0.05-1.03l1.5-10.57q0.65-4.57 0.98-9.17 0.34-4.59 0.36-9.21 0.02-4.61-0.28-9.21-0.3-4.6-0.91-9.17l-1.53-11.37q-0.1-0.64 0.11-1.25 0.21-0.61 0.67-1.06 0.47-0.45 1.09-0.64 0.62-0.18 1.26-0.05 7.79 1.37 15.62 2.44 7.83 1.07 15.7 1.85 7.86 0.77 15.75 1.25 7.89 0.48 15.79 0.65z"/>
						<path id="path13" class="s1" d="m179.67 166.21v44.07c-21.9 4.75-41.02 11.51-56.03 19.69-13.51-8.7-18.92-16.92-18.92-21.08 0-5.74 10.3-19.21 37.95-30.97q4.49-1.87 9.05-3.54 4.56-1.66 9.19-3.13 4.64-1.47 9.33-2.73 4.69-1.26 9.43-2.31z"/>
						<path id="path14" class="s1" d="m123.63 252.75c2.16 1.17 1.58 0.94 2.76 1.49q0.3 0.14 0.57 0.36 0.26 0.21 0.46 0.49 0.2 0.27 0.32 0.58 0.13 0.32 0.17 0.66l1.91 14.81q0.59 4.58 0.87 9.2 0.27 4.61 0.23 9.23-0.05 4.62-0.41 9.23-0.36 4.6-1.04 9.17l-1.21 8.22q-0.1 0.63-0.47 1.16-0.38 0.52-0.95 0.82-0.57 0.3-1.21 0.31-0.65 0.01-1.23-0.28c-25.01-12.33-36.24-26.58-36.24-44.38v-64.95c0 11.71 6.62 22.74 18.35 32.48q2 1.63 4.07 3.15 2.08 1.53 4.22 2.96 2.14 1.43 4.35 2.75 2.21 1.32 4.48 2.54z"/>
						<path id="path15" class="s1" d="m146.05 262.69c6.66 2.41 13.75 4.87 21.2 6.77q0.39 0.1 0.74 0.31 0.34 0.2 0.61 0.5 0.27 0.3 0.44 0.67 0.17 0.37 0.22 0.77l1.76 13.48q0.61 4.57 0.91 9.16 0.29 4.6 0.26 9.2-0.02 4.61-0.36 9.2-0.34 4.6-0.99 9.16l-1.43 9.97q-0.08 0.57-0.39 1.06-0.31 0.48-0.79 0.8-0.48 0.32-1.04 0.41-0.57 0.1-1.13-0.05c-7.81-2.06-15.22-4.7-22.14-7.24q-0.45-0.15-0.81-0.44-0.36-0.3-0.6-0.69-0.25-0.4-0.34-0.86-0.09-0.46-0.02-0.92l1.48-10.12q0.67-4.57 1.02-9.18 0.36-4.6 0.39-9.22 0.04-4.62-0.25-9.23-0.28-4.62-0.87-9.2l-1.5-11.46q-0.11-0.71 0.15-1.38 0.26-0.66 0.82-1.11 0.57-0.44 1.28-0.54 0.71-0.1 1.38 0.18z"/>
					</g>
				</g>
			</g>
		</g>
	</g>
</svg>